<svg id="Layer_1" data-name="Layer 1" xmlns="http://www.w3.org/2000/svg" viewBox="0 0 4000 4000"><defs><style>.cls-1,.cls-2,.cls-3{stroke:#000;stroke-miterlimit:10;}.cls-1,.cls-3{stroke-width:16px;}.cls-2,.cls-4{fill:none;}.cls-2{stroke-width:20px;}.cls-3{fill:#fff;}</style></defs><circle class="cls-1" cx="1999.21" cy="1999.8" r="1054.77" transform="translate(-828.52 1999.38) rotate(-45)"/><path class="cls-2" d="M1041.12,2745.81c-222.94-287-315.18-670.61-217.21-1049.72,58.72-227.24,178-422.77,336.09-573.78"/><path class="cls-2" d="M1657.91,834.25c203.6-60,425.56-67.3,646-10.34l5.78,1.51"/><path class="cls-2" d="M3048.7,1387c156.16,267.15,210.92,593.66,127.39,916.92-109.18,422.51-427.71,735.41-815.81,856.33"/><path class="cls-2" d="M2078.65,3212.5a1213.36,1213.36,0,0,1-382.56-36.41q-5.4-1.4-10.76-2.83"/><path class="cls-3" d="M2322.75,1795a43.33,43.33,0,0,0-1.46-20c-5-16.21-18.74-30-18.74-30-46.47-46.31-85-66.45-85.43-66.66-24.49-12.76-50.49-20.6-76.6-29.4-18.07-6.09-42.09,11.15-32.14,32,5.19,10.84,21.57,5.89,42.83,20.86,4,2.79,17.79,13.24,25.21,30.84,3.78,9,4.82,19.16,4.51,34.35-.66,32.58,50.29,62.1,78.24,69.47S2318.2,1822.79,2322.75,1795Z"/><path class="cls-4" d="M2847.85,2587.86a65.25,65.25,0,0,1-20.83-21.2c-12.28-18.64-34.21-22.56-54.1-28.45-38.6-11.43-76.81-50.78-87.43-89.95-.73-2.67-2.58-8.76-.28-15.41,2.39-6.91,9-11.26,14.27-16.3,33.83-32.23,13.74-88.53,21.54-134.6a106.6,106.6,0,0,1,24.93-52.33c29.21-33.18,77-46,104.28-80.86,11.35-14.51,18.32-31.89,24.88-49.1q31.93-83.76,55.62-170.37,11.64-42.57,21.24-85.66c8.64-38.81,12.25-69,50.34-88.7a129.89,129.89,0,0,1,18.42-7.8l2.92.75c-89.92-364.27-371.8-668.85-760.55-769.3-6.57-1.7-13.14-3.31-19.72-4.88a125.93,125.93,0,0,1,27.65,41.85,144.73,144.73,0,0,1,7.69,13.66c27.41,58,4.65,115.73,3.71,119.55-9.55,39-39.66,75.92-79.57,80.38-31.72,3.55-61.64-13.26-92.29-22.14s-71-5.71-84.79,23c-5.87,12.2-5.57,26.74-11.87,38.72-20,38-81.45,20.71-116,46.23-10.59,7.82-17.86,19.23-27,28.67-30.45,31.35-78.15,37.93-121.84,37.11s-88.47-7.12-130.38,5.3-80.49,51.38-74,94.6c32.28,9.24,65.77-22.76,98.08-13.6,42.7,12.1,31.77,59.67,36.13,93.28,6.53,50.32,60.69,92.28,106.29,107.19,51.19,16.73,74-5.07,133.48,5.94,68.29,12.65,126.56,58.1,171.48,109.08,38.79,44,67.11,124.12,127.17,142.7,31.06,9.61,35.37,3.87,129.74,8.11,23.51,1.05,52,5.26,89.11,16.63,57,17.48,90.66,38.55,101.91,71.13,6.37,18.47,3.43,34.51.09,51.52-20,102-125,154.57-130.87,156.89-25.69,10.11-54,12.46-79.4,23.24-79.29,33.6-106.63,135.44-178.37,183.08-47.23,31.38-107.33,35.08-159.58,57.11-58.1,24.49-103.92,70.39-150.59,112.79-24.13,21.92-115,68.89-139.51,45.08-8-7.8-5.15-19.68-1.71-57.12,2.12-23.19,3-40.56,3.41-54.36.87-31,1.54-52.33,1.65-57.1,1.46-67.93,133.83-129.56,157.18-216.37,24.5-91-102.58-137.44-120.34-302.25-8.8-81.67,36.83-165.44-9-240.89-44.8-73.75-109.31-62.64-180.34-81.42-49.73-13.16-105.77-38.13-130.53-86.12-30.46-59-8.85-129.86-43.06-188.77-5.81-10-17.23-27.51-30.18-26.51-18.63,1.43-24.5,26-38.63,38.19-20.73,17.94-55.75,3.19-68-21.32-19.32-38.58-4.66-79.62-3.12-82.63a76.31,76.31,0,0,1,6.61-10.66v-.08a1047.62,1047.62,0,0,0-210.07,311.34l7.14-9.47.72-1.44c33.5,29.52,86.92,33.48,124.41,9.23,22.35-14.47,50-38.24,70.75-21.59,5.36,4.29,8.64,10.6,11.57,16.8,24.49,51.87,39.73,115.9,91.1,141.42,30.48,15.14,68.51,13,95.91,33.17,28.72,21.14,37.07,61.15,33,96.57s-18.08,68.91-25.27,103.84a274.65,274.65,0,0,0,15.64,160.4c11,26.15,24.17,61,2,78.67-8.05,6.41-18.79,8.13-29.05,8.89-64.51,4.78-130.63-21.3-174.49-68.84-16.32-17.68-29.8-38.21-48.7-53.11s-45.76-23.25-67.16-12.26c-36.15,18.57-18.7,70.72-64.55,114.51-29.17,27.86-78.29,45.12-102.84,27.26-8.3-6-12.54-15.15-14.83-23.42l-.14-.06c67.31,397.56,360.77,738.28,776.41,845.69,441.8,114.17,890.56-69.16,1134.35-425A62.13,62.13,0,0,1,2847.85,2587.86Z"/><path class="cls-3" d="M1237.18,1274.17c-1.54,3-16.2,44,3.12,82.63,12.27,24.51,47.29,39.26,68,21.32,14.13-12.22,20-36.76,38.63-38.19,13-1,24.37,16.51,30.18,26.51,34.21,58.91,12.6,129.76,43.06,188.77,24.76,48,80.8,73,130.53,86.12,71,18.78,135.54,7.67,180.34,81.42,45.82,75.45.19,159.22,9,240.89,17.76,164.81,144.84,211.21,120.34,302.25-23.35,86.81-155.72,148.44-157.18,216.37-.11,4.77-.78,26.06-1.65,57.1-.38,13.8-1.29,31.17-3.41,54.36-3.44,37.44-6.33,49.32,1.71,57.12,24.53,23.81,115.38-23.16,139.51-45.08,46.67-42.4,92.49-88.3,150.59-112.79,52.25-22,112.35-25.73,159.58-57.11,71.74-47.64,99.08-149.48,178.37-183.08,25.42-10.78,53.71-13.13,79.4-23.24,5.91-2.32,110.87-54.84,130.87-156.89,3.34-17,6.28-33.05-.09-51.52-11.25-32.58-44.91-53.65-101.91-71.13-37.07-11.37-65.6-15.58-89.11-16.63-94.37-4.24-98.68,1.5-129.74-8.11-60.06-18.58-88.38-98.69-127.17-142.7-44.92-51-103.19-96.43-171.48-109.08-59.49-11-82.29,10.79-133.48-5.94-45.6-14.91-99.76-56.87-106.29-107.19-4.36-33.61,6.57-81.18-36.13-93.28-32.31-9.16-65.8,22.84-98.08,13.6-6.53-43.22,32.06-82.18,74-94.6s86.68-6.13,130.38-5.3,91.39-5.76,121.84-37.11c9.17-9.44,16.44-20.85,27-28.67,34.55-25.52,96-8.21,116-46.23,6.3-12,6-26.52,11.87-38.72,13.83-28.75,54.14-31.92,84.79-23s60.57,25.69,92.29,22.14c39.91-4.46,70-41.37,79.57-80.38.94-3.82,23.7-61.54-3.71-119.55a144.73,144.73,0,0,0-7.69-13.66,125.93,125.93,0,0,0-27.65-41.85c-372.93-88.89-748.57,32.69-999.6,289.73v.08A76.31,76.31,0,0,0,1237.18,1274.17Z"/><path class="cls-3" d="M973.87,2198.82c24.55,17.86,73.67.6,102.84-27.26,45.85-43.79,28.4-95.94,64.55-114.51,21.4-11,48.27-2.64,67.16,12.26s32.38,35.43,48.7,53.11c43.86,47.54,110,73.62,174.49,68.84,10.26-.76,21-2.48,29.05-8.89,22.19-17.65,9-52.52-2-78.67A274.65,274.65,0,0,1,1443,1943.3c7.19-34.93,21.21-68.41,25.27-103.84s-4.28-75.43-33-96.57c-27.4-20.17-65.43-18-95.91-33.17-51.37-25.52-66.61-89.55-91.1-141.42-2.93-6.2-6.21-12.51-11.57-16.8-20.77-16.65-48.4,7.12-70.75,21.59-37.49,24.25-90.91,20.29-124.41-9.23l-.72,1.44-7.14,9.47A1062.52,1062.52,0,0,0,978,1735.91a1051,1051,0,0,0-19.08,439.43l.14.06C961.33,2183.67,965.57,2192.8,973.87,2198.82Z"/><path class="cls-3" d="M3002.31,1754.93c-38.09,19.72-41.7,49.89-50.34,88.7q-9.6,43.08-21.24,85.66-23.66,86.48-55.62,170.37c-6.56,17.21-13.53,34.59-24.88,49.1-27.24,34.81-75.07,47.68-104.28,80.86A106.6,106.6,0,0,0,2721,2282c-7.8,46.07,12.29,102.37-21.54,134.6-5.29,5-11.88,9.39-14.27,16.3-2.3,6.65-.45,12.74.28,15.41,10.62,39.17,48.83,78.52,87.43,89.95,19.89,5.89,41.82,9.81,54.1,28.45a65.25,65.25,0,0,0,20.83,21.2,62.13,62.13,0,0,0,21.81,8.13,1052.94,1052.94,0,0,0,150.77-332.29c45.29-175.26,43.75-351.6,3.22-515.82l-2.92-.75A129.89,129.89,0,0,0,3002.31,1754.93Z"/></svg>